<?xml version="1.0" encoding="UTF-8"?>
<svg id="Layer_2" data-name="Layer 2" xmlns="http://www.w3.org/2000/svg" viewBox="0 0 337.78 94.84">
  <defs>
    <style>
      .cls-1 {
        fill: #1A1F22;
      }

      .cls-1, .cls-3, .cls-4 {
        stroke-width: 0px;
      }

      .cls-3 {
        fill: #1A1F22;
      }

      .cls-4 {
        fill: #1A1F22;
      }
    </style>
    <mask id="arrowCutouts" maskUnits="userSpaceOnUse" x="0" y="0" width="337.78" height="94.84">
      <rect width="337.78" height="94.84" fill="white"/>
      <polygon points="323.57 22.02 315.04 15.62 315.08 28.48 323.57 22.02" fill="black"/>
      <polygon points="323.57 43.44 315.04 37.03 315.08 49.89 323.57 43.44" fill="black"/>
    </mask>
  </defs>
  <g id="Layer_1-2" data-name="Layer 1">
    <path class="cls-3" d="M72.46,61.31H20.83C4,61.31-2.63,52.89.94,36.06l2.11-9.8C6.61,9.43,16.81,1.01,33.65,1.01h51.63l-3.17,15.07h-46.05c-7.54,0-12.09,3.74-13.64,11.23l-1.66,7.69c-1.56,7.49,1.41,11.23,8.89,11.23h46.05l-3.24,15.07Z"/>
    <path class="cls-4" mask="url(#arrowCutouts)" d="M263.44,3.44h58.21c6.11,0,10.53,1.43,13.26,4.28,2.73,2.85,3.52,6.89,2.37,12.11-1.15,5.12-3.63,9.1-7.44,11.96,2,1.43,3.35,3.3,4.06,5.61.7,2.31.7,5.07,0,8.27-1.15,5.36-3.71,9.51-7.66,12.44-3.96,2.93-8.99,4.39-15.1,4.39h-60.46l12.77-59.06ZM311.81,47.74c3.4,0,5.43-1.43,6.08-4.28.25-1.33.01-2.36-.71-3.1-.73-.74-1.92-1.11-3.57-1.11h-38.38l-1.8,8.49h38.38ZM314.21,25.96c1.65,0,3-.33,4.06-1,1.05-.66,1.7-1.64,1.95-2.92.55-2.56-.88-3.84-4.28-3.84h-36.13l-1.73,7.75h36.13Z"/>
    <g>
      <path class="cls-1" d="M5.18,84.47c2.27,0,3.79,1.29,4.11,3.3h-1.73c-.29-1.1-1.02-1.79-2.39-1.79-1.81,0-2.91,1.55-2.91,3.67s1.1,3.67,2.91,3.67c1.37,0,2.1-.69,2.39-1.79h1.73c-.32,2.01-1.84,3.3-4.11,3.3-2.64,0-4.63-2.09-4.63-5.18s1.99-5.18,4.63-5.18Z"/>
      <path class="cls-1" d="M13.5,84.64h1.65v8.57h5.03v1.47h-6.68v-10.04Z"/>
      <path class="cls-1" d="M28.05,84.47c2.76,0,4.7,2.19,4.7,5.18s-1.94,5.18-4.7,5.18-4.7-2.19-4.7-5.18,1.94-5.18,4.7-5.18ZM28.05,85.99c-1.81,0-3,1.53-3,3.67s1.18,3.67,3,3.67,3-1.53,3-3.67-1.18-3.67-3-3.67Z"/>
      <path class="cls-1" d="M43.57,90.44v-5.8h1.65v5.98c0,2.76-1.72,4.22-4.11,4.22s-4.1-1.46-4.1-4.22v-5.98h1.65v5.8c0,1.95.93,2.9,2.45,2.9s2.46-.95,2.46-2.9Z"/>
      <path class="cls-1" d="M54.31,86.11v8.57h-1.65v-8.57h-3.31v-1.47h8.28v1.47h-3.31Z"/>
      <path class="cls-1" d="M73.69,84.64l2.05,7.82,1.98-7.82h1.59l-2.75,10.04h-1.53l-2.06-7.55-2.03,7.55h-1.54l-2.76-10.04h1.64l1.98,7.82,2.06-7.82h1.38Z"/>
      <path class="cls-1" d="M91.78,84.64v10.04h-1.65v-4.4h-5v4.4h-1.65v-10.04h1.65v4.17h5v-4.17h1.65Z"/>
      <path class="cls-1" d="M100.86,84.47c2.76,0,4.7,2.19,4.7,5.18s-1.94,5.18-4.7,5.18-4.7-2.19-4.7-5.18,1.94-5.18,4.7-5.18ZM100.86,85.99c-1.81,0-3,1.53-3,3.67s1.18,3.67,3,3.67,3-1.53,3-3.67-1.18-3.67-3-3.67Z"/>
      <path class="cls-1" d="M109.93,84.64h1.65v8.57h5.03v1.47h-6.68v-10.04Z"/>
      <path class="cls-1" d="M127.71,84.64v1.47h-5.24v2.7h4.77v1.47h-4.77v2.93h5.24v1.47h-6.86v-10.04h6.86Z"/>
      <path class="cls-1" d="M133.2,91.54c.19,1.29,1.11,1.87,2.47,1.87,1.24,0,2.17-.54,2.17-1.51,0-.8-.44-1.15-1.47-1.36l-2.08-.43c-1.38-.27-2.53-.99-2.53-2.6,0-1.72,1.48-3.04,3.68-3.04s3.73,1.22,3.95,3.16h-1.72c-.11-1-.88-1.73-2.25-1.73-1.18,0-2.03.63-2.03,1.47,0,.73.41,1.06,1.35,1.25l2.02.38c1.65.33,2.74,1.18,2.74,2.76,0,1.88-1.73,3.07-3.84,3.07-2.41,0-4.03-1.2-4.22-3.3h1.76Z"/>
      <path class="cls-1" d="M148.68,84.64l3.9,10.04h-1.76l-.99-2.61h-4.22l-.98,2.61h-1.7l3.9-10.04h1.84ZM146.16,90.62h3.12l-1.57-4.15-1.55,4.15Z"/>
      <path class="cls-1" d="M156.68,84.64h1.65v8.57h5.03v1.47h-6.68v-10.04Z"/>
      <path class="cls-1" d="M174.46,84.64v1.47h-5.24v2.7h4.77v1.47h-4.77v2.93h5.24v1.47h-6.86v-10.04h6.86Z"/>
      <path class="cls-1" d="M188.87,94.67l-2.8-8.59v8.59h-1.58v-10.04h2.56l2.5,7.91,2.5-7.91h2.53v10.04h-1.57v-8.59l-2.82,8.59h-1.32Z"/>
      <path class="cls-1" d="M203.65,84.47c2.76,0,4.7,2.19,4.7,5.18s-1.94,5.18-4.7,5.18-4.7-2.19-4.7-5.18,1.94-5.18,4.7-5.18ZM203.65,85.99c-1.81,0-3,1.53-3,3.67s1.18,3.67,3,3.67,3-1.53,3-3.67-1.18-3.67-3-3.67Z"/>
      <path class="cls-1" d="M214.36,94.67h-1.64v-10.04h4.17c1.99,0,3.42,1.04,3.42,3.09,0,1.59-.91,2.58-2.35,2.93l2.67,4.01h-1.87l-2.52-3.88h-1.88v3.88ZM214.36,86.07v3.31h2.5c1.17,0,1.81-.66,1.81-1.65s-.65-1.66-1.81-1.66h-2.5Z"/>
      <path class="cls-1" d="M228.76,86.11v8.57h-1.65v-8.57h-3.31v-1.47h8.28v1.47h-3.31Z"/>
      <path class="cls-1" d="M235.37,89.66c0-3.09,2.06-5.18,4.77-5.18,2.27,0,3.81,1.29,4.11,3.3h-1.73c-.29-1.07-1.07-1.79-2.36-1.79-1.9,0-3.08,1.55-3.08,3.67s1.15,3.67,3.02,3.67c1.57,0,2.57-.93,2.74-2.36h-2.38v-1.43h3.88v5.14h-1.46v-1.31c-.54.92-1.6,1.47-2.79,1.47-2.68,0-4.72-2.09-4.72-5.18Z"/>
      <path class="cls-1" d="M253.92,84.64l3.9,10.04h-1.76l-.99-2.61h-4.22l-.98,2.61h-1.7l3.9-10.04h1.84ZM251.41,90.62h3.12l-1.57-4.15-1.55,4.15Z"/>
      <path class="cls-1" d="M261.06,89.66c0-3.09,2.06-5.18,4.77-5.18,2.27,0,3.81,1.29,4.11,3.3h-1.73c-.29-1.07-1.07-1.79-2.36-1.79-1.9,0-3.08,1.55-3.08,3.67s1.15,3.67,3.02,3.67c1.57,0,2.57-.93,2.74-2.36h-2.38v-1.43h3.88v5.14h-1.46v-1.31c-.54.92-1.6,1.47-2.79,1.47-2.68,0-4.72-2.09-4.72-5.18Z"/>
      <path class="cls-1" d="M281.52,84.64v1.47h-5.24v2.7h4.77v1.47h-4.77v2.93h5.24v1.47h-6.86v-10.04h6.86Z"/>
      <path class="cls-1" d="M291.54,84.64h3.89c2.09,0,3.35.92,3.35,2.67,0,1.16-.66,1.91-1.44,2.17,1.03.29,1.77,1.22,1.77,2.37,0,1.84-1.28,2.83-3.33,2.83h-4.25v-10.04ZM295.39,88.87c1.17,0,1.79-.44,1.79-1.42s-.62-1.4-1.8-1.4h-2.23v2.82h2.24ZM293.15,93.26h2.53c1.18,0,1.83-.6,1.83-1.53s-.65-1.5-1.81-1.5h-2.54v3.02Z"/>
      <path class="cls-1" d="M308.41,84.64l3.9,10.04h-1.76l-.99-2.61h-4.22l-.98,2.61h-1.7l3.9-10.04h1.84ZM305.9,90.62h3.12l-1.57-4.15-1.55,4.15Z"/>
      <path class="cls-1" d="M324.62,94.67h-1.44l-5.14-7.62v7.62h-1.62v-10.04h1.68l4.91,7.23v-7.23h1.62v10.04Z"/>
      <path class="cls-1" d="M331.17,89.18l4.41-4.54h2.05l-4.08,4.17,4.22,5.87h-2.01l-3.4-4.76-1.2,1.22v3.53h-1.65v-10.04h1.65v4.54Z"/>
    </g>
    <path class="cls-3" d="M134.15,39.63c-1.35-2.39-2.51-4.49-3.49-6.3-.98-1.81-1.87-3.43-2.67-4.87-.8-1.44-1.49-2.74-2.07-3.91-.58-1.17-1.15-2.3-1.7-3.4-.49,1.1-1.03,2.24-1.61,3.4-.58,1.16-1.26,2.47-2.02,3.91-.77,1.44-1.64,3.05-2.62,4.83-.98,1.78-2.14,3.86-3.49,6.25l-9.84,17.47c-1.1,1.96-2.5,3.54-4.18,4.73-1.69,1.2-3.78,1.79-6.3,1.79s-4.55-.69-6.48-2.07c-1.93-1.38-3.33-3.51-4.18-6.39L67.86,1.01h19.03l5.79,21.42c.98,3.49,1.79,6.56,2.44,9.19.64,2.64,1.21,5.21,1.7,7.72.98-2.15,2.13-4.52,3.45-7.13,1.32-2.6,3.05-5.9,5.19-9.88l8.28-15.45c.8-1.53,1.59-2.74,2.39-3.63.8-.89,1.64-1.58,2.53-2.07.89-.49,1.82-.81,2.8-.97.98-.15,2.02-.23,3.13-.23,1.17,0,2.24.08,3.22.23.98.15,1.91.48,2.8.97.89.49,1.75,1.18,2.57,2.07.83.89,1.64,2.1,2.44,3.63l8.18,15.54c1.16,2.15,2.17,4.03,3.03,5.65.86,1.62,1.62,3.1,2.3,4.41.67,1.32,1.27,2.53,1.79,3.63.52,1.1,1.03,2.18,1.52,3.22l19.96-9.01-7.27,24.73c-.85,2.88-2.25,5.01-4.18,6.39-1.93,1.38-4.09,2.07-6.48,2.07s-4.52-.58-6.21-1.75c-1.69-1.17-3.11-2.76-4.27-4.78l-9.84-17.38h0Z"/>
    <path class="cls-4" d="M192.44,23.9c1.35,2.39,2.53,4.49,3.54,6.3,1.01,1.81,1.9,3.42,2.67,4.83.77,1.41,1.44,2.7,2.02,3.86.58,1.16,1.15,2.3,1.7,3.4.49-1.1,1.03-2.22,1.61-3.36s1.26-2.42,2.02-3.86c.77-1.44,1.65-3.05,2.67-4.83,1.01-1.78,2.19-3.86,3.54-6.25l9.84-17.47c1.1-1.96,2.5-3.54,4.18-4.74,1.69-1.19,3.79-1.79,6.3-1.79s4.55.69,6.48,2.07c1.93,1.38,3.32,3.51,4.18,6.39l15.54,54.06h-18.94l-5.79-21.42c-.98-3.49-1.81-6.56-2.48-9.19-.67-2.64-1.26-5.21-1.75-7.72-1.04,2.14-2.21,4.52-3.49,7.13-1.29,2.6-2.97,5.9-5.06,9.88l-8.27,15.45c-.8,1.53-1.61,2.74-2.44,3.63-.83.89-1.67,1.58-2.53,2.07-.86.49-1.78.81-2.76.97-.98.15-2.05.23-3.22.23s-2.24-.08-3.22-.23-1.9-.48-2.76-.97c-.86-.49-1.7-1.18-2.53-2.07-.83-.89-1.64-2.1-2.44-3.63l-8.27-15.54c-1.1-2.08-2.08-3.95-2.94-5.61-.86-1.66-1.64-3.14-2.34-4.46-.7-1.32-1.32-2.53-1.84-3.63l-1.47-3.11-20.14,9.26,7.4-25.08c.85-2.88,2.27-5.01,4.23-6.39,1.96-1.38,4.14-2.07,6.53-2.07s4.52.58,6.21,1.75c1.69,1.17,3.08,2.76,4.18,4.78l9.84,17.38h0Z"/>
  </g>
</svg>
