<?xml version="1.0" encoding="UTF-8"?>
<svg id="Layer_2" data-name="Layer 2" xmlns="http://www.w3.org/2000/svg" viewBox="0 0 158.93 60.04">
  <defs>
    <style>
      .cls-1 {
        fill: #1A1F22;
      }

      .cls-1, .cls-2 {
        fill-rule: evenodd;
        stroke-width: 0px;
      }

      .cls-2 {
        fill: #1A1F22;
      }
    </style>
  </defs>
  <g id="Layer_2-2" data-name="Layer 2">
    <path class="cls-1" d="M98.42,13.79c18.8,6.9,35.17-2.71,44.74-13.79,1.37,1.49,2.05,2.24,2.05,2.24,3.16.56,3.82-.99,7.13,1.14,1.27.81,2.1,2.2,2.13,3.71.01.58.12,1.21.43,2.24,1.37.12,2.39.22,3.08.28.59.05,1.03.59.95,1.18-.46,3.81-3.11,5.56-7.94,5.25-7.07,2.69-20.24,18.72-34.45,32.86l-4.56-3.7c5.32-7.23,16.39-13.16-8.32-6.75l-3.05-2.47c.95-.95,1.59-1.95,1.95-3.01,1.09-3.2,0-6-2.63-8.43-1.71-1.58-4.23-3.05-7.19-4.36-9.88-4.39-25.87-7.45-31.67-6.94-5.43-1.09-11.51,1.99-31.05,4.49-15.26.69-23.4-.93-30.01-9.32,31.91,17.58,48.74-12.81,98.42,5.41Z"/>
    <path class="cls-2" d="M57.31,14.99c7.26-1.87,57.82,11.63,37.08,20.6l30.12,24.45c-15.08-6.9-35.19-18.08-50.26-24.98,20.43-4.11-4.73-14.31-16.94-20.07Z"/>
  </g>
</svg>
